<svg width="24" height="24" viewBox="0 0 24 24" fill="none" xmlns="http://www.w3.org/2000/svg">
<path d="M12 15.5L11.505 15.995C11.6363 16.1263 11.8143 16.2 12 16.2C12.1857 16.2 12.3637 16.1263 12.495 15.995L12 15.5ZM6.49497 9.00503C6.22161 8.73166 5.77839 8.73166 5.50502 9.00503C5.23166 9.27839 5.23166 9.72161 5.50502 9.99498L6.49497 9.00503ZM18.495 9.99497C18.7683 9.72161 18.7683 9.27839 18.495 9.00503C18.2216 8.73166 17.7784 8.73166 17.505 9.00503L18.495 9.99497ZM12.495 15.005L6.49497 9.00503L5.50502 9.99498L11.505 15.995L12.495 15.005ZM12.495 15.995L18.495 9.99497L17.505 9.00503L11.505 15.005L12.495 15.995Z" fill="white"/>
</svg>
