<svg width="12" height="12" viewBox="0 0 12 12" fill="none" xmlns="http://www.w3.org/2000/svg">
<g clip-path="url(#clip0_171_353)">
<path d="M2.49497 6.06753C2.22161 5.79416 1.77839 5.79416 1.50503 6.06753C1.23166 6.34089 1.23166 6.78411 1.50503 7.05747L2.49497 6.06753ZM11.5448 2.78811C11.7592 2.46644 11.6723 2.03183 11.3506 1.81739C11.0289 1.60294 10.5943 1.68986 10.3799 2.01153L11.5448 2.78811ZM5.71231 10.2748L5.21734 10.7698C5.36563 10.9181 5.5726 10.9921 5.78129 10.9714C5.98998 10.9507 6.17842 10.8376 6.29475 10.6631L5.71231 10.2748ZM1.50503 7.05747L5.21734 10.7698L6.20729 9.77984L2.49497 6.06753L1.50503 7.05747ZM6.29475 10.6631L11.5448 2.78811L10.3799 2.01153L5.12988 9.88652L6.29475 10.6631Z" fill="white"/>
</g>
<defs>
<clipPath id="clip0_171_353">
<rect width="12" height="12" fill="white"/>
</clipPath>
</defs>
</svg>
